<svg xmlns="http://www.w3.org/2000/svg" viewBox="0 0 32 32" fill="none">
  <defs>
    <linearGradient id="grad1" x1="0%" y1="0%" x2="100%" y2="100%">
      <stop offset="0%" style="stop-color:#ff0040;stop-opacity:1" />
      <stop offset="100%" style="stop-color:#ff6b35;stop-opacity:1" />
    </linearGradient>
  </defs>
  
  <!-- Background circle -->
  <circle cx="16" cy="16" r="15" fill="url(#grad1)" stroke="#fff" stroke-width="1"/>
  
  <!-- Gaming controller (Gamepad2 icon) -->
  <g transform="translate(6, 8)" fill="#fff">
    <!-- Controller body -->
    <path d="M4 4 C2 4 0 6 0 8 L0 12 C0 14 2 16 4 16 L6 16 L6 14 L8 14 L8 16 L10 16 L10 14 L12 14 L12 16 L14 16 L14 14 L16 14 L16 16 L18 16 C20 16 22 14 22 12 L22 8 C22 6 20 4 18 4 L4 4 Z" stroke="#fff" stroke-width="0.5"/>
    
    <!-- D-pad -->
    <rect x="4" y="7" width="1" height="3" fill="#fff"/>
    <rect x="3" y="8" width="3" height="1" fill="#fff"/>
    
    <!-- Action buttons -->
    <circle cx="16" cy="7" r="0.8" fill="#fff"/>
    <circle cx="18" cy="9" r="0.8" fill="#fff"/>
    <circle cx="14" cy="9" r="0.8" fill="#fff"/>
    <circle cx="16" cy="11" r="0.8" fill="#fff"/>
    
    <!-- Shoulder buttons -->
    <rect x="2" y="3" width="3" height="1" rx="0.5" fill="#fff"/>
    <rect x="17" y="3" width="3" height="1" rx="0.5" fill="#fff"/>
  </g>
</svg>